<svg width="26" height="27" viewBox="0 0 26 27" fill="none" xmlns="http://www.w3.org/2000/svg">
<path d="M13 26.5C11.2233 26.5 9.54417 26.1587 7.9625 25.4762C6.38083 24.7937 4.99958 23.8621 3.81875 22.6812C2.63792 21.5004 1.70625 20.1192 1.02375 18.5375C0.34125 16.9558 0 15.2767 0 13.5C0 11.7017 0.34125 10.0171 1.02375 8.44625C1.70625 6.87542 2.63792 5.49958 3.81875 4.31875C4.99958 3.13792 6.38083 2.20625 7.9625 1.52375C9.54417 0.84125 11.2233 0.5 13 0.5C14.7983 0.5 16.4829 0.84125 18.0537 1.52375C19.6246 2.20625 21.0004 3.13792 22.1812 4.31875C23.3621 5.49958 24.2937 6.87542 24.9762 8.44625C25.6587 10.0171 26 11.7017 26 13.5C26 15.2767 25.6587 16.9558 24.9762 18.5375C24.2937 20.1192 23.3621 21.5004 22.1812 22.6812C21.0004 23.8621 19.6246 24.7937 18.0537 25.4762C16.4829 26.1587 14.7983 26.5 13 26.5ZM13 23.835C13.5633 23.055 14.0508 22.2425 14.4625 21.3975C14.8742 20.5525 15.21 19.6533 15.47 18.7H10.53C10.79 19.6533 11.1258 20.5525 11.5375 21.3975C11.9492 22.2425 12.4367 23.055 13 23.835ZM9.62 23.315C9.23 22.6 8.88875 21.8579 8.59625 21.0888C8.30375 20.3196 8.06 19.5233 7.865 18.7H4.03C4.65833 19.7833 5.44375 20.7258 6.38625 21.5275C7.32875 22.3292 8.40667 22.925 9.62 23.315ZM16.38 23.315C17.5933 22.925 18.6712 22.3292 19.6138 21.5275C20.5562 20.7258 21.3417 19.7833 21.97 18.7H18.135C17.94 19.5233 17.6962 20.3196 17.4037 21.0888C17.1112 21.8579 16.77 22.6 16.38 23.315ZM2.925 16.1H7.345C7.28 15.6667 7.23125 15.2387 7.19875 14.8162C7.16625 14.3937 7.15 13.955 7.15 13.5C7.15 13.045 7.16625 12.6062 7.19875 12.1838C7.23125 11.7612 7.28 11.3333 7.345 10.9H2.925C2.81667 11.3333 2.73542 11.7612 2.68125 12.1838C2.62708 12.6062 2.6 13.045 2.6 13.5C2.6 13.955 2.62708 14.3937 2.68125 14.8162C2.73542 15.2387 2.81667 15.6667 2.925 16.1ZM9.945 16.1H16.055C16.12 15.6667 16.1688 15.2387 16.2013 14.8162C16.2337 14.3937 16.25 13.955 16.25 13.5C16.25 13.045 16.2337 12.6062 16.2013 12.1838C16.1688 11.7612 16.12 11.3333 16.055 10.9H9.945C9.88 11.3333 9.83125 11.7612 9.79875 12.1838C9.76625 12.6062 9.75 13.045 9.75 13.5C9.75 13.955 9.76625 14.3937 9.79875 14.8162C9.83125 15.2387 9.88 15.6667 9.945 16.1ZM18.655 16.1H23.075C23.1833 15.6667 23.2646 15.2387 23.3187 14.8162C23.3729 14.3937 23.4 13.955 23.4 13.5C23.4 13.045 23.3729 12.6062 23.3187 12.1838C23.2646 11.7612 23.1833 11.3333 23.075 10.9H18.655C18.72 11.3333 18.7687 11.7612 18.8013 12.1838C18.8337 12.6062 18.85 13.045 18.85 13.5C18.85 13.955 18.8337 14.3937 18.8013 14.8162C18.7687 15.2387 18.72 15.6667 18.655 16.1ZM18.135 8.3H21.97C21.3417 7.21667 20.5562 6.27417 19.6138 5.4725C18.6712 4.67083 17.5933 4.075 16.38 3.685C16.77 4.4 17.1112 5.14208 17.4037 5.91125C17.6962 6.68042 17.94 7.47667 18.135 8.3ZM10.53 8.3H15.47C15.21 7.34667 14.8742 6.4475 14.4625 5.6025C14.0508 4.7575 13.5633 3.945 13 3.165C12.4367 3.945 11.9492 4.7575 11.5375 5.6025C11.1258 6.4475 10.79 7.34667 10.53 8.3ZM4.03 8.3H7.865C8.06 7.47667 8.30375 6.68042 8.59625 5.91125C8.88875 5.14208 9.23 4.4 9.62 3.685C8.40667 4.075 7.32875 4.67083 6.38625 5.4725C5.44375 6.27417 4.65833 7.21667 4.03 8.3Z" fill="white"/>
</svg>
